# xmcd
#
# Track frame offsets: 
#        150
#        8485
#        15474
#        23811
#        32243
#        41610
#        49149
#        56817
#        64692
#        72632
#        80639
#        89761
#        99081
#        107656
#        116416
#        124844
#        134452
#        143537
#        150862
#        160679
#        170014
#        179509
#        186992
#        198659
#        206075
#        213953
#
# Disc length: 2957 seconds
#
# Revision: 0
# Processed by: cddbd v1.5.2PL0 Copyright (c) Steve Scherf et al.
# Submitted via: ExactAudioCopy v1.0b3
#
DISCID=6c0b8b1a
DTITLE=七瀬光 - TV アニメ「境界の彼方」オリジナルサウンドトラック「Beyond the Melodies」 CD1
DYEAR=2013
DGENRE=Anime
TTITLE0=少し不思議な物語の開幕
TTITLE1=境界の彼方 (TV size)
TTITLE2=いつもの文芸部
TTITLE3=みんなの文芸部
TTITLE4=まどろみの文芸部
TTITLE5=名瀬博臣は見守る男
TTITLE6=メガネ好きと妹好きの語り合い
TTITLE7=仲良しの文芸部
TTITLE8=微笑みの文芸部
TTITLE9=ノリノリの文芸部
TTITLE10=秋人の胸中
TTITLE11=不穏の足音が聞こえる
TTITLE12=乗り越えるべき過去
TTITLE13=妖夢と異界士
TTITLE14=異界士の戦い
TTITLE15=新堂写真館
TTITLE16=不愉快なメガネ好き
TTITLE17=神原弥生という異界士
TTITLE18=二ノ宮雫の栄光
TTITLE19=不愉快ですは不愉快じゃない
TTITLE20=藤真弥勒という男
TTITLE21=忍び寄る虚ろな影
TTITLE22=虚ろな影の脅威
TTITLE23=望まぬ戦い
TTITLE24=妖夢化する秋人
TTITLE25=覚悟の戦い
EXTD=
EXTT0=
EXTT1=
EXTT2=
EXTT3=
EXTT4=
EXTT5=
EXTT6=
EXTT7=
EXTT8=
EXTT9=
EXTT10=
EXTT11=
EXTT12=
EXTT13=
EXTT14=
EXTT15=
EXTT16=
EXTT17=
EXTT18=
EXTT19=
EXTT20=
EXTT21=
EXTT22=
EXTT23=
EXTT24=
EXTT25=
PLAYORDER=
